name analog
datacolumns 19
datarows 55
range 0.0 0.027
endheader
time	ground_force_vx	ground_force_vy	ground_force_vz	ground_force_px	ground_force_py	ground_force_pz	l_ground_force_vx	l_ground_force_vy	l_ground_force_vz	l_ground_force_px	l_ground_force_py	l_ground_force_pz	ground_torque_x	ground_torque_y	ground_torque_z	l_ground_torque_x	l_ground_torque_y	l_ground_torque_z
0.0	-0.0	-0.0	-0.0	-7.518970012664795	24.255395889282227	-247.2732086181641	8.186594009399414	-21.23534393310547	-525.3779907226562	-0.0	-0.0	-0.0	-0.0	-0.0	-0.0	168043.875	-19815.796875	-838.5916748046875
0.0005	-0.0	-0.0	-0.0	-7.493682861328125	24.61501121520996	-247.7854766845703	8.14820384979248	-21.463367462158203	-523.9303588867188	-0.0	-0.0	-0.0	-0.0	-0.0	-0.0	168318.78125	-19818.3046875	-902.0037231445312
0.001	-0.0	-0.0	-0.0	-7.9009690284729	24.191205978393555	-247.8250732421875	8.618247032165527	-21.37238883972168	-523.4306030273438	-0.0	-0.0	-0.0	-0.0	-0.0	-0.0	167964.578125	-19818.630859375	-867.9619140625
0.0015	-0.0	-0.0	-0.0	-7.646919727325439	24.382923126220703	-247.6788330078125	7.932044506072998	-21.222192764282227	-523.7342529296875	-0.0	-0.0	-0.0	-0.0	-0.0	-0.0	167645.125	-19530.701171875	-936.1202392578124
0.002	-0.0	-0.0	-0.0	-8.143305778503418	24.513233184814453	-247.1357879638672	8.250102996826172	-20.778589248657227	-521.4274291992188	-0.0	-0.0	-0.0	-0.0	-0.0	-0.0	167552.953125	-19538.951171875	-876.43017578125
0.0025	-0.0	-0.0	-0.0	-7.900763034820557	24.753154754638672	-248.0419921875	8.136358261108398	-20.565404891967773	-521.4804077148438	-0.0	-0.0	-0.0	-0.0	-0.0	-0.0	167314.390625	-19396.05078125	-804.1870727539062
0.003	-0.0	-0.0	-0.0	-7.633056163787842	24.781099319458008	-248.99185180664065	8.236382484436035	-20.945899963378903	-521.3817138671875	-0.0	-0.0	-0.0	-0.0	-0.0	-0.0	167365.9375	-19305.431640625	-859.7196655273438
0.0035	-0.0	-0.0	-0.0	-7.607937335968018	24.89551544189453	-248.49612426757807	8.250102996826172	-20.377460479736328	-518.2391967773438	-0.0	-0.0	-0.0	-0.0	-0.0	-0.0	167000.359375	-19198.02734375	-876.2578735351562
0.004	-0.0	-0.0	-0.0	-7.950589656829834	24.55000305175781	-249.5991668701172	8.097613334655762	-20.89933204650879	-519.0355834960938	-0.0	-0.0	-0.0	-0.0	-0.0	-0.0	166660.4375	-19166.259765625	-991.4527587890624
0.0045000000000000005	-0.0	-0.0	-0.0	-7.871932029724121	24.407468795776367	-247.5649871826172	7.973103523254394	-20.55416679382324	-518.9373168945312	-0.0	-0.0	-0.0	-0.0	-0.0	-0.0	166509.109375	-18814.986328125	-1047.1727294921875
0.005	-0.0	-0.0	-0.0	-7.771867275238037	24.828088760375977	-250.20709228515625	8.037107467651367	-20.40571594238281	-517.4005126953125	-0.0	-0.0	-0.0	-0.0	-0.0	-0.0	166436.1875	-18853.685546875	-935.6762084960938
0.0055	-0.0	-0.0	-0.0	-8.236288070678711	24.956512451171875	-249.34503173828125	8.175603866577148	-20.313987731933597	-518.294677734375	-0.0	-0.0	-0.0	-0.0	-0.0	-0.0	166025.109375	-18699.2421875	-1024.5303955078125
0.006	-0.0	-0.0	-0.0	-8.014371871948242	24.91709518432617	-249.89520263671875	7.526092052459717	-20.23992729187012	-515.2914428710938	-0.0	-0.0	-0.0	-0.0	-0.0	-0.0	165860.578125	-18652.31640625	-906.292236328125
0.006500000000000001	-0.0	-0.0	-0.0	-7.835837841033935	25.23857688903809	-248.3838348388672	7.505337715148926	-20.112695693969727	-515.8106079101562	-0.0	-0.0	-0.0	-0.0	-0.0	-0.0	165685.140625	-18327.4765625	-1033.1846923828125
0.007	-0.0	-0.0	-0.0	-8.163058280944824	25.51608657836914	-249.83621215820312	7.373206615447998	-20.147510528564453	-514.30029296875	-0.0	-0.0	-0.0	-0.0	-0.0	-0.0	165249.984375	-18377.15625	-1092.587890625
0.0075	-0.0	-0.0	-0.0	-8.3213529586792	25.00601959228516	-250.9930877685547	7.40231990814209	-20.29395294189453	-513.1557006835938	-0.0	-0.0	-0.0	-0.0	-0.0	-0.0	164802.671875	-18036.47265625	-1202.9659423828125
0.008	-0.0	-0.0	-0.0	-8.539470672607422	25.679288864135746	-252.17047119140625	7.0574631690979	-20.009796142578125	-512.3995361328125	-0.0	-0.0	-0.0	-0.0	-0.0	-0.0	164771.59375	-18078.546875	-1293.72216796875
0.0085	-0.0	-0.0	-0.0	-8.142867088317871	26.139896392822266	-253.68101501464844	6.815904140472412	-19.975461959838867	-511.7979431152344	-0.0	-0.0	-0.0	-0.0	-0.0	-0.0	164622.578125	-17859.38671875	-1138.972900390625
0.009000000000000001	-0.0	-0.0	-0.0	-8.757822036743164	26.02037239074707	-251.85482788085935	6.894850730895996	-19.93621826171875	-510.5564575195313	-0.0	-0.0	-0.0	-0.0	-0.0	-0.0	164168.359375	-17554.705078125	-1335.0419921875
0.0095	-0.0	-0.0	-0.0	-8.807205200195312	26.56085968017578	-256.31109619140625	6.934492588043213	-20.161788940429688	-510.1105346679688	-0.0	-0.0	-0.0	-0.0	-0.0	-0.0	164353.171875	-17656.45703125	-1315.472900390625
0.01	-0.0	-0.0	-0.0	-8.80724048614502	26.34262466430664	-257.05401611328125	6.540079593658447	-19.79337882995605	-509.8350524902344	-0.0	-0.0	-0.0	-0.0	-0.0	-0.0	164005.25	-17167.205078125	-1381.319580078125
0.0105	-0.0	-0.0	-0.0	-9.034831047058104	27.2584171295166	-258.3077087402344	6.790996074676514	-20.25004768371582	-508.71392822265625	-0.0	-0.0	-0.0	-0.0	-0.0	-0.0	164106.90625	-17231.7421875	-1384.3272705078125
0.011	-0.0	-0.0	-0.0	-8.693565368652344	27.080041885375977	-257.6624450683594	6.89499044418335	-20.18603134155273	-510.0142822265625	-0.0	-0.0	-0.0	-0.0	-0.0	-0.0	164384.296875	-17041.171875	-1402.609619140625
0.0115	-0.0	-0.0	-0.0	-9.155420303344728	27.38750648498535	-259.5872802734375	6.604482173919678	-20.08873176574707	-509.351318359375	-0.0	-0.0	-0.0	-0.0	-0.0	-0.0	164414.921875	-17025.41015625	-1405.76904296875
0.012	-0.0	-0.0	-0.0	-9.108142852783203	28.116310119628903	-261.4500427246094	6.54020881652832	-20.20138359069824	-509.097900390625	-0.0	-0.0	-0.0	-0.0	-0.0	-0.0	164523.34375	-16934.52734375	-1340.5589599609375
0.0125	-0.0	-0.0	-0.0	-9.115384101867676	28.0845890045166	-262.86260986328125	6.903785705566406	-20.128686904907227	-510.7745666503906	-0.0	-0.0	-0.0	-0.0	-0.0	-0.0	164580.078125	-16634.48828125	-1424.0765380859375
0.013000000000000001	-0.0	-0.0	-0.0	-9.415180206298828	28.56211280822754	-263.0887756347656	6.806416034698486	-19.79256629943848	-510.6794738769531	-0.0	-0.0	-0.0	-0.0	-0.0	-0.0	164592.390625	-16586.216796875	-1300.1317138671875
0.0135	-0.0	-0.0	-0.0	-9.172574043273926	28.586923599243164	-266.5216979980469	7.09686279296875	-20.281408309936523	-509.5078125	-0.0	-0.0	-0.0	-0.0	-0.0	-0.0	164246.0	-16517.087890625	-1488.6063232421875
0.014	-0.0	-0.0	-0.0	-9.269780158996582	29.250978469848636	-266.3939819335937	6.766269207000732	-20.161487579345703	-508.71392822265625	-0.0	-0.0	-0.0	-0.0	-0.0	-0.0	164311.046875	-16593.84375	-1542.8389892578125
0.0145	-0.0	-0.0	-0.0	-9.797240257263184	29.51011276245117	-267.645751953125	6.750156402587891	-19.97670555114746	-509.0310668945313	-0.0	-0.0	-0.0	-0.0	-0.0	-0.0	164529.015625	-16377.939453125	-1529.331787109375
0.015	-0.0	-0.0	-0.0	-9.432049751281738	29.73674964904785	-268.9960021972656	6.596912384033203	-19.727806091308597	-509.1266784667969	-0.0	-0.0	-0.0	-0.0	-0.0	-0.0	164389.265625	-15984.5009765625	-1621.070068359375
0.0155	-0.0	-0.0	-0.0	-10.064257621765137	29.679288864135746	-268.416748046875	6.516304016113281	-19.791900634765625	-508.6498718261719	-0.0	-0.0	-0.0	-0.0	-0.0	-0.0	164680.640625	-15978.7236328125	-1596.8104248046875
0.016	-0.0	-0.0	-0.0	-9.974933624267578	29.962894439697266	-269.09326171875	6.1692633628845215	-20.282289505004883	-507.60198974609375	-0.0	-0.0	-0.0	-0.0	-0.0	-0.0	164448.75	-15548.1748046875	-1750.9425048828125
0.0165	-0.0	-0.0	-0.0	-10.38930606842041	29.719423294067383	-270.4696350097656	5.4671406745910645	-20.17771339416504	-509.7613525390625	-0.0	-0.0	-0.0	-0.0	-0.0	-0.0	164390.703125	-15380.259765625	-1964.56884765625
0.017	-0.0	-0.0	-0.0	-10.10491180419922	30.07787132263184	-269.6295166015625	5.56473445892334	-19.83193588256836	-508.9390258789063	-0.0	-0.0	-0.0	-0.0	-0.0	-0.0	164604.859375	-15137.412109375	-2023.7774658203125
0.0175	-0.0	-0.0	-0.0	-10.403726577758787	30.32840156555176	-270.5075988769531	5.10452938079834	-19.87237930297852	-510.2994995117188	-0.0	-0.0	-0.0	-0.0	-0.0	-0.0	164740.0625	-14929.849609375	-1959.243896484375
0.018000000000000002	-0.0	-0.0	-0.0	-10.413578033447266	29.72848320007324	-270.861328125	5.056514739990234	-19.485652923583984	-509.855712890625	-0.0	-0.0	-0.0	-0.0	-0.0	-0.0	165096.609375	-14666.9150390625	-2153.1962890625
0.0185	-0.0	-0.0	-0.0	-10.59890365600586	30.07807731628418	-268.93292236328125	4.749556541442871	-19.471418380737305	-511.5348815917969	-0.0	-0.0	-0.0	-0.0	-0.0	-0.0	165564.375	-14674.0458984375	-2131.733154296875
0.019	-0.0	-0.0	-0.0	-10.84243869781494	30.15003776550293	-268.9066162109375	4.967803955078125	-19.42389297485352	-512.997802734375	-0.0	-0.0	-0.0	-0.0	-0.0	-0.0	166182.140625	-14475.9443359375	-2229.57666015625
0.0195	-0.0	-0.0	-0.0	-10.938145637512209	30.13686752319336	-267.0988464355469	4.694912433624268	-18.724197387695312	-515.9255981445312	-0.0	-0.0	-0.0	-0.0	-0.0	-0.0	166546.703125	-14582.0458984375	-2121.265625
0.02	-0.0	-0.0	-0.0	-11.364646911621094	29.776010513305664	-266.6073608398437	4.61961030960083	-18.500083923339844	-516.6767578125	-0.0	-0.0	-0.0	-0.0	-0.0	-0.0	167331.96875	-14668.65234375	-2161.14013671875
0.0205	-0.0	-0.0	-0.0	-11.240524291992188	29.793413162231445	-267.59088134765625	4.708171367645264	-18.2761173248291	-518.8648681640625	-0.0	-0.0	-0.0	-0.0	-0.0	-0.0	167976.296875	-14255.919921875	-2077.7763671875
0.021	-0.0	-0.0	-0.0	-11.15131378173828	30.143741607666016	-263.9198303222656	4.961454391479492	-17.959285736083984	-521.5390014648438	-0.0	-0.0	-0.0	-0.0	-0.0	-0.0	168405.078125	-14473.8515625	-2042.0281982421875
0.021500000000000002	-0.0	-0.0	-0.0	-11.63893985748291	29.638887405395508	-263.49627685546875	4.861605644226074	-18.299999237060547	-522.1685791015625	-0.0	-0.0	-0.0	-0.0	-0.0	-0.0	168842.78125	-14188.3037109375	-2107.33740234375
0.022	-0.0	-0.0	-0.0	-11.2880859375	29.300142288208008	-261.8005065917969	4.902796745300293	-18.265066146850582	-522.7972412109375	-0.0	-0.0	-0.0	-0.0	-0.0	-0.0	169298.6875	-14150.7021484375	-2004.49560546875
0.0225	-0.0	-0.0	-0.0	-11.538355827331545	29.401517868041992	-261.0711669921875	4.7430500984191895	-18.32378578186035	-524.5189208984375	-0.0	-0.0	-0.0	-0.0	-0.0	-0.0	169435.140625	-14116.51953125	-2063.92724609375
0.023	-0.0	-0.0	-0.0	-11.781439781188965	28.93803977966309	-261.04913330078125	4.530094146728516	-18.67712783813477	-524.0995483398438	-0.0	-0.0	-0.0	-0.0	-0.0	-0.0	169714.0625	-13705.7314453125	-2172.947509765625
0.0235	-0.0	-0.0	-0.0	-11.537335395812988	28.539888381958008	-257.1651611328125	4.547851085662842	-19.20713233947754	-525.3322143554688	-0.0	-0.0	-0.0	-0.0	-0.0	-0.0	169858.765625	-13650.0712890625	-2275.979248046875
0.024	-0.0	-0.0	-0.0	-12.085349082946776	28.39828872680664	-256.4298400878906	4.464646816253662	-19.49563217163086	-526.9407348632812	-0.0	-0.0	-0.0	-0.0	-0.0	-0.0	170175.09375	-13409.7333984375	-2228.433349609375
0.0245	-0.0	-0.0	-0.0	-11.75741481781006	27.58324241638184	-255.7022705078125	4.276219367980957	-19.695735931396484	-528.57275390625	-0.0	-0.0	-0.0	-0.0	-0.0	-0.0	170367.875	-13183.4130859375	-2323.626708984375
0.025	-0.0	-0.0	-0.0	-11.870087623596191	27.98694610595703	-252.59683227539065	4.440824031829834	-19.836111068725582	-527.9380493164062	-0.0	-0.0	-0.0	-0.0	-0.0	-0.0	170744.234375	-12914.4306640625	-2295.635986328125
0.025500000000000002	-0.0	-0.0	-0.0	-11.705175399780272	27.376680374145508	-251.4250030517578	4.276444435119629	-20.202306747436523	-529.84765625	-0.0	-0.0	-0.0	-0.0	-0.0	-0.0	170946.3125	-12880.1982421875	-2301.91162109375
0.026000000000000002	-0.0	-0.0	-0.0	-11.390644073486328	26.61261558532715	-249.01084899902344	4.127549171447754	-20.42563247680664	-532.1992797851562	-0.0	-0.0	-0.0	-0.0	-0.0	-0.0	171801.0625	-12903.12890625	-2270.71630859375
0.0265	-0.0	-0.0	-0.0	-11.747637748718262	27.09564208984375	-246.6869201660156	4.304910659790039	-20.667274475097656	-532.805419921875	-0.0	-0.0	-0.0	-0.0	-0.0	-0.0	171995.453125	-12629.71484375	-2264.478515625
0.027	-0.0	-0.0	-0.0	-11.682049751281738	26.185447692871094	-247.0404052734375	4.416905403137207	-20.77414894104004	-534.4406127929688	-0.0	-0.0	-0.0	-0.0	-0.0	-0.0	172169.28125	-12577.1044921875	-2173.84130859375
